<mxfile host="app.diagrams.net" modified="2024-07-18T23:01:28.464Z" agent="Mozilla/5.0 (Windows NT 10.0; Win64; x64) AppleWebKit/537.36 (KHTML, like Gecko) Chrome/126.0.0.0 Safari/537.36" etag="wYk0cI-cGrU3Q7jc9M4b" version="24.7.1" type="device">
  <diagram id="C5RBs43oDa-KdzZeNtuy" name="Page-1">
    <mxGraphModel dx="2670" dy="746" grid="1" gridSize="10" guides="1" tooltips="1" connect="1" arrows="1" fold="1" page="1" pageScale="1" pageWidth="827" pageHeight="1169" math="0" shadow="0">
      <root>
        <mxCell id="WIyWlLk6GJQsqaUBKTNV-0" />
        <mxCell id="WIyWlLk6GJQsqaUBKTNV-1" parent="WIyWlLk6GJQsqaUBKTNV-0" />
        <mxCell id="GAh8kWD-6GLYoqQhM_mk-1" value="Stem" style="html=1;whiteSpace=wrap;" vertex="1" parent="WIyWlLk6GJQsqaUBKTNV-1">
          <mxGeometry x="-440" y="200" width="110" height="50" as="geometry" />
        </mxCell>
        <mxCell id="GAh8kWD-6GLYoqQhM_mk-2" value="Root" style="html=1;whiteSpace=wrap;" vertex="1" parent="WIyWlLk6GJQsqaUBKTNV-1">
          <mxGeometry x="-290" y="200" width="110" height="50" as="geometry" />
        </mxCell>
        <mxCell id="GAh8kWD-6GLYoqQhM_mk-3" value="Leaf" style="html=1;whiteSpace=wrap;" vertex="1" parent="WIyWlLk6GJQsqaUBKTNV-1">
          <mxGeometry x="-140" y="200" width="110" height="50" as="geometry" />
        </mxCell>
        <mxCell id="GAh8kWD-6GLYoqQhM_mk-4" value="Flower" style="html=1;whiteSpace=wrap;" vertex="1" parent="WIyWlLk6GJQsqaUBKTNV-1">
          <mxGeometry x="10" y="200" width="110" height="50" as="geometry" />
        </mxCell>
        <mxCell id="GAh8kWD-6GLYoqQhM_mk-5" value="" style="endArrow=diamondThin;endFill=0;endSize=24;html=1;rounded=0;exitX=0.5;exitY=0;exitDx=0;exitDy=0;entryX=0;entryY=0.5;entryDx=0;entryDy=0;" edge="1" parent="WIyWlLk6GJQsqaUBKTNV-1" source="GAh8kWD-6GLYoqQhM_mk-1" target="GAh8kWD-6GLYoqQhM_mk-16">
          <mxGeometry width="160" relative="1" as="geometry">
            <mxPoint x="-465" y="140" as="sourcePoint" />
            <mxPoint x="-160" y="120" as="targetPoint" />
            <Array as="points">
              <mxPoint x="-385" y="160" />
              <mxPoint x="-385" y="90" />
              <mxPoint x="-50" y="90" />
            </Array>
          </mxGeometry>
        </mxCell>
        <mxCell id="GAh8kWD-6GLYoqQhM_mk-6" value="" style="endArrow=none;html=1;rounded=0;" edge="1" parent="WIyWlLk6GJQsqaUBKTNV-1">
          <mxGeometry width="50" height="50" relative="1" as="geometry">
            <mxPoint x="-235.5" y="200" as="sourcePoint" />
            <mxPoint x="-235" y="90" as="targetPoint" />
          </mxGeometry>
        </mxCell>
        <mxCell id="GAh8kWD-6GLYoqQhM_mk-8" value="" style="endArrow=none;html=1;rounded=0;exitX=0.5;exitY=0;exitDx=0;exitDy=0;" edge="1" parent="WIyWlLk6GJQsqaUBKTNV-1" source="GAh8kWD-6GLYoqQhM_mk-3">
          <mxGeometry width="50" height="50" relative="1" as="geometry">
            <mxPoint x="-150" y="120" as="sourcePoint" />
            <mxPoint x="-85" y="90" as="targetPoint" />
          </mxGeometry>
        </mxCell>
        <mxCell id="GAh8kWD-6GLYoqQhM_mk-9" value="&lt;font style=&quot;font-size: 18px;&quot;&gt;*&lt;/font&gt;" style="text;html=1;align=center;verticalAlign=middle;resizable=0;points=[];autosize=1;strokeColor=none;fillColor=none;" vertex="1" parent="WIyWlLk6GJQsqaUBKTNV-1">
          <mxGeometry x="-240" y="173" width="30" height="40" as="geometry" />
        </mxCell>
        <mxCell id="GAh8kWD-6GLYoqQhM_mk-10" value="&lt;font style=&quot;font-size: 18px;&quot;&gt;1&lt;/font&gt;" style="text;html=1;align=center;verticalAlign=middle;resizable=0;points=[];autosize=1;strokeColor=none;fillColor=none;" vertex="1" parent="WIyWlLk6GJQsqaUBKTNV-1">
          <mxGeometry x="-390" y="173" width="30" height="40" as="geometry" />
        </mxCell>
        <mxCell id="GAh8kWD-6GLYoqQhM_mk-11" value="&lt;font style=&quot;font-size: 18px;&quot;&gt;*&lt;/font&gt;" style="text;html=1;align=center;verticalAlign=middle;resizable=0;points=[];autosize=1;strokeColor=none;fillColor=none;" vertex="1" parent="WIyWlLk6GJQsqaUBKTNV-1">
          <mxGeometry x="-90" y="173" width="30" height="40" as="geometry" />
        </mxCell>
        <mxCell id="GAh8kWD-6GLYoqQhM_mk-12" value="&lt;font style=&quot;font-size: 18px;&quot;&gt;*&lt;/font&gt;" style="text;html=1;align=center;verticalAlign=middle;resizable=0;points=[];autosize=1;strokeColor=none;fillColor=none;" vertex="1" parent="WIyWlLk6GJQsqaUBKTNV-1">
          <mxGeometry x="60" y="173" width="30" height="40" as="geometry" />
        </mxCell>
        <mxCell id="GAh8kWD-6GLYoqQhM_mk-13" value="Petal" style="html=1;whiteSpace=wrap;" vertex="1" parent="WIyWlLk6GJQsqaUBKTNV-1">
          <mxGeometry x="10" y="350" width="110" height="50" as="geometry" />
        </mxCell>
        <mxCell id="GAh8kWD-6GLYoqQhM_mk-14" value="" style="endArrow=diamondThin;endFill=0;endSize=24;html=1;rounded=0;entryX=0.443;entryY=1.006;entryDx=0;entryDy=0;entryPerimeter=0;" edge="1" parent="WIyWlLk6GJQsqaUBKTNV-1">
          <mxGeometry width="160" relative="1" as="geometry">
            <mxPoint x="65.63999999999999" y="350" as="sourcePoint" />
            <mxPoint x="64.37" y="250.29999999999995" as="targetPoint" />
          </mxGeometry>
        </mxCell>
        <mxCell id="GAh8kWD-6GLYoqQhM_mk-15" value="&lt;font style=&quot;font-size: 18px;&quot;&gt;*&lt;/font&gt;" style="text;html=1;align=center;verticalAlign=middle;resizable=0;points=[];autosize=1;strokeColor=none;fillColor=none;" vertex="1" parent="WIyWlLk6GJQsqaUBKTNV-1">
          <mxGeometry x="60" y="320" width="30" height="40" as="geometry" />
        </mxCell>
        <mxCell id="GAh8kWD-6GLYoqQhM_mk-16" value="Plant" style="html=1;whiteSpace=wrap;" vertex="1" parent="WIyWlLk6GJQsqaUBKTNV-1">
          <mxGeometry x="450" y="70" width="110" height="50" as="geometry" />
        </mxCell>
        <mxCell id="GAh8kWD-6GLYoqQhM_mk-17" value="Vascular" style="html=1;whiteSpace=wrap;" vertex="1" parent="WIyWlLk6GJQsqaUBKTNV-1">
          <mxGeometry x="340" y="210" width="120" height="50" as="geometry" />
        </mxCell>
        <mxCell id="GAh8kWD-6GLYoqQhM_mk-18" value="Non-Vascular" style="html=1;whiteSpace=wrap;" vertex="1" parent="WIyWlLk6GJQsqaUBKTNV-1">
          <mxGeometry x="560" y="210" width="110" height="50" as="geometry" />
        </mxCell>
        <mxCell id="GAh8kWD-6GLYoqQhM_mk-19" value="Hornworts" style="html=1;whiteSpace=wrap;" vertex="1" parent="WIyWlLk6GJQsqaUBKTNV-1">
          <mxGeometry x="680" y="450" width="110" height="50" as="geometry" />
        </mxCell>
        <mxCell id="GAh8kWD-6GLYoqQhM_mk-20" value="Liverworts" style="html=1;whiteSpace=wrap;" vertex="1" parent="WIyWlLk6GJQsqaUBKTNV-1">
          <mxGeometry x="680" y="370" width="110" height="50" as="geometry" />
        </mxCell>
        <mxCell id="GAh8kWD-6GLYoqQhM_mk-21" value="Moses" style="html=1;whiteSpace=wrap;" vertex="1" parent="WIyWlLk6GJQsqaUBKTNV-1">
          <mxGeometry x="680" y="290" width="110" height="50" as="geometry" />
        </mxCell>
        <mxCell id="GAh8kWD-6GLYoqQhM_mk-22" value="&lt;div&gt;Seed&lt;/div&gt;" style="html=1;whiteSpace=wrap;" vertex="1" parent="WIyWlLk6GJQsqaUBKTNV-1">
          <mxGeometry x="420" y="320" width="110" height="50" as="geometry" />
        </mxCell>
        <mxCell id="GAh8kWD-6GLYoqQhM_mk-23" value="Seedless" style="html=1;whiteSpace=wrap;" vertex="1" parent="WIyWlLk6GJQsqaUBKTNV-1">
          <mxGeometry x="270" y="320" width="110" height="50" as="geometry" />
        </mxCell>
        <mxCell id="GAh8kWD-6GLYoqQhM_mk-24" value="Clubmosses" style="html=1;whiteSpace=wrap;" vertex="1" parent="WIyWlLk6GJQsqaUBKTNV-1">
          <mxGeometry x="160" y="470" width="110" height="50" as="geometry" />
        </mxCell>
        <mxCell id="GAh8kWD-6GLYoqQhM_mk-25" value="Ferns" style="html=1;whiteSpace=wrap;" vertex="1" parent="WIyWlLk6GJQsqaUBKTNV-1">
          <mxGeometry x="160" y="400" width="110" height="50" as="geometry" />
        </mxCell>
        <mxCell id="GAh8kWD-6GLYoqQhM_mk-26" value="Gym&lt;span style=&quot;background-color: initial;&quot;&gt;nosperms&lt;/span&gt;" style="html=1;whiteSpace=wrap;" vertex="1" parent="WIyWlLk6GJQsqaUBKTNV-1">
          <mxGeometry x="440" y="420" width="110" height="50" as="geometry" />
        </mxCell>
        <mxCell id="GAh8kWD-6GLYoqQhM_mk-27" value="Angiosperms" style="html=1;whiteSpace=wrap;" vertex="1" parent="WIyWlLk6GJQsqaUBKTNV-1">
          <mxGeometry x="440" y="500" width="110" height="50" as="geometry" />
        </mxCell>
        <mxCell id="GAh8kWD-6GLYoqQhM_mk-28" value="Dicots" style="html=1;whiteSpace=wrap;" vertex="1" parent="WIyWlLk6GJQsqaUBKTNV-1">
          <mxGeometry x="510" y="610" width="110" height="50" as="geometry" />
        </mxCell>
        <mxCell id="GAh8kWD-6GLYoqQhM_mk-29" value="Monocots" style="html=1;whiteSpace=wrap;" vertex="1" parent="WIyWlLk6GJQsqaUBKTNV-1">
          <mxGeometry x="360" y="610" width="110" height="50" as="geometry" />
        </mxCell>
        <mxCell id="GAh8kWD-6GLYoqQhM_mk-30" value="" style="endArrow=block;dashed=1;endFill=0;endSize=12;html=1;rounded=0;entryX=0.5;entryY=1;entryDx=0;entryDy=0;" edge="1" parent="WIyWlLk6GJQsqaUBKTNV-1" target="GAh8kWD-6GLYoqQhM_mk-16">
          <mxGeometry width="160" relative="1" as="geometry">
            <mxPoint x="505" y="180" as="sourcePoint" />
            <mxPoint x="540" y="160" as="targetPoint" />
          </mxGeometry>
        </mxCell>
        <mxCell id="GAh8kWD-6GLYoqQhM_mk-31" value="" style="endArrow=none;dashed=1;html=1;rounded=0;exitX=0.5;exitY=0;exitDx=0;exitDy=0;entryX=0.547;entryY=0.04;entryDx=0;entryDy=0;entryPerimeter=0;" edge="1" parent="WIyWlLk6GJQsqaUBKTNV-1" source="GAh8kWD-6GLYoqQhM_mk-17" target="GAh8kWD-6GLYoqQhM_mk-18">
          <mxGeometry width="50" height="50" relative="1" as="geometry">
            <mxPoint x="540" y="190" as="sourcePoint" />
            <mxPoint x="690" y="180" as="targetPoint" />
            <Array as="points">
              <mxPoint x="400" y="180" />
              <mxPoint x="570" y="180" />
              <mxPoint x="620" y="180" />
            </Array>
          </mxGeometry>
        </mxCell>
        <mxCell id="GAh8kWD-6GLYoqQhM_mk-32" value="" style="endArrow=none;dashed=1;html=1;rounded=0;exitX=0;exitY=0.6;exitDx=0;exitDy=0;entryX=-0.027;entryY=0.404;entryDx=0;entryDy=0;entryPerimeter=0;exitPerimeter=0;" edge="1" parent="WIyWlLk6GJQsqaUBKTNV-1" source="GAh8kWD-6GLYoqQhM_mk-19" target="GAh8kWD-6GLYoqQhM_mk-21">
          <mxGeometry width="50" height="50" relative="1" as="geometry">
            <mxPoint x="450" y="450" as="sourcePoint" />
            <mxPoint x="670" y="452" as="targetPoint" />
            <Array as="points">
              <mxPoint x="610" y="480" />
              <mxPoint x="610" y="420" />
              <mxPoint x="610" y="310" />
            </Array>
          </mxGeometry>
        </mxCell>
        <mxCell id="GAh8kWD-6GLYoqQhM_mk-33" value="" style="endArrow=none;dashed=1;html=1;rounded=0;entryX=0;entryY=0.5;entryDx=0;entryDy=0;" edge="1" parent="WIyWlLk6GJQsqaUBKTNV-1" target="GAh8kWD-6GLYoqQhM_mk-20">
          <mxGeometry width="50" height="50" relative="1" as="geometry">
            <mxPoint x="610" y="395" as="sourcePoint" />
            <mxPoint x="670" y="452" as="targetPoint" />
            <Array as="points">
              <mxPoint x="650" y="395" />
            </Array>
          </mxGeometry>
        </mxCell>
        <mxCell id="GAh8kWD-6GLYoqQhM_mk-34" value="" style="endArrow=block;dashed=1;endFill=0;endSize=12;html=1;rounded=0;entryX=0.5;entryY=1;entryDx=0;entryDy=0;" edge="1" parent="WIyWlLk6GJQsqaUBKTNV-1">
          <mxGeometry width="160" relative="1" as="geometry">
            <mxPoint x="610" y="310" as="sourcePoint" />
            <mxPoint x="610" y="260" as="targetPoint" />
          </mxGeometry>
        </mxCell>
        <mxCell id="GAh8kWD-6GLYoqQhM_mk-35" value="" style="endArrow=block;dashed=1;endFill=0;endSize=12;html=1;rounded=0;exitX=-0.007;exitY=0.618;exitDx=0;exitDy=0;exitPerimeter=0;entryX=0.551;entryY=1.051;entryDx=0;entryDy=0;entryPerimeter=0;" edge="1" parent="WIyWlLk6GJQsqaUBKTNV-1" source="GAh8kWD-6GLYoqQhM_mk-27" target="GAh8kWD-6GLYoqQhM_mk-22">
          <mxGeometry width="160" relative="1" as="geometry">
            <mxPoint x="420" y="560" as="sourcePoint" />
            <mxPoint x="550" y="400" as="targetPoint" />
            <Array as="points">
              <mxPoint x="420" y="530" />
              <mxPoint x="420" y="400" />
              <mxPoint x="480" y="400" />
            </Array>
          </mxGeometry>
        </mxCell>
        <mxCell id="GAh8kWD-6GLYoqQhM_mk-36" value="" style="endArrow=none;dashed=1;html=1;rounded=0;exitX=-0.022;exitY=0.618;exitDx=0;exitDy=0;exitPerimeter=0;" edge="1" parent="WIyWlLk6GJQsqaUBKTNV-1" source="GAh8kWD-6GLYoqQhM_mk-26">
          <mxGeometry width="50" height="50" relative="1" as="geometry">
            <mxPoint x="540" y="530" as="sourcePoint" />
            <mxPoint x="420" y="450" as="targetPoint" />
          </mxGeometry>
        </mxCell>
        <mxCell id="GAh8kWD-6GLYoqQhM_mk-37" value="" style="endArrow=block;dashed=1;endFill=0;endSize=12;html=1;rounded=0;entryX=0.5;entryY=1;entryDx=0;entryDy=0;exitX=1.024;exitY=0.6;exitDx=0;exitDy=0;exitPerimeter=0;" edge="1" parent="WIyWlLk6GJQsqaUBKTNV-1" source="GAh8kWD-6GLYoqQhM_mk-24">
          <mxGeometry width="160" relative="1" as="geometry">
            <mxPoint x="320" y="540" as="sourcePoint" />
            <mxPoint x="324.65999999999997" y="370" as="targetPoint" />
            <Array as="points">
              <mxPoint x="325" y="500" />
            </Array>
          </mxGeometry>
        </mxCell>
        <mxCell id="GAh8kWD-6GLYoqQhM_mk-38" value="" style="endArrow=none;dashed=1;html=1;rounded=0;" edge="1" parent="WIyWlLk6GJQsqaUBKTNV-1">
          <mxGeometry width="50" height="50" relative="1" as="geometry">
            <mxPoint x="270" y="420" as="sourcePoint" />
            <mxPoint x="320" y="420" as="targetPoint" />
          </mxGeometry>
        </mxCell>
        <mxCell id="GAh8kWD-6GLYoqQhM_mk-39" value="" style="endArrow=block;dashed=1;endFill=0;endSize=12;html=1;rounded=0;entryX=0.5;entryY=1;entryDx=0;entryDy=0;exitX=0.55;exitY=-0.023;exitDx=0;exitDy=0;exitPerimeter=0;" edge="1" parent="WIyWlLk6GJQsqaUBKTNV-1">
          <mxGeometry width="160" relative="1" as="geometry">
            <mxPoint x="420.5" y="610" as="sourcePoint" />
            <mxPoint x="494.65999999999997" y="551.15" as="targetPoint" />
            <Array as="points">
              <mxPoint x="420" y="590" />
              <mxPoint x="495" y="590" />
            </Array>
          </mxGeometry>
        </mxCell>
        <mxCell id="GAh8kWD-6GLYoqQhM_mk-40" value="" style="endArrow=none;dashed=1;html=1;rounded=0;entryX=0.455;entryY=-0.023;entryDx=0;entryDy=0;entryPerimeter=0;" edge="1" parent="WIyWlLk6GJQsqaUBKTNV-1" target="GAh8kWD-6GLYoqQhM_mk-28">
          <mxGeometry width="50" height="50" relative="1" as="geometry">
            <mxPoint x="490" y="590" as="sourcePoint" />
            <mxPoint x="670" y="570" as="targetPoint" />
            <Array as="points">
              <mxPoint x="560" y="590" />
            </Array>
          </mxGeometry>
        </mxCell>
        <mxCell id="GAh8kWD-6GLYoqQhM_mk-41" value="" style="endArrow=block;dashed=1;endFill=0;endSize=12;html=1;rounded=0;entryX=0.5;entryY=1;entryDx=0;entryDy=0;exitX=0.55;exitY=-0.074;exitDx=0;exitDy=0;exitPerimeter=0;" edge="1" parent="WIyWlLk6GJQsqaUBKTNV-1" source="GAh8kWD-6GLYoqQhM_mk-23">
          <mxGeometry width="160" relative="1" as="geometry">
            <mxPoint x="210" y="290" as="sourcePoint" />
            <mxPoint x="399.65999999999997" y="260" as="targetPoint" />
            <Array as="points">
              <mxPoint x="330" y="290" />
              <mxPoint x="400" y="290" />
            </Array>
          </mxGeometry>
        </mxCell>
        <mxCell id="GAh8kWD-6GLYoqQhM_mk-42" value="" style="endArrow=none;dashed=1;html=1;rounded=0;exitX=0.551;exitY=-0.008;exitDx=0;exitDy=0;exitPerimeter=0;" edge="1" parent="WIyWlLk6GJQsqaUBKTNV-1" source="GAh8kWD-6GLYoqQhM_mk-22">
          <mxGeometry width="50" height="50" relative="1" as="geometry">
            <mxPoint x="560" y="290" as="sourcePoint" />
            <mxPoint x="400" y="290" as="targetPoint" />
            <Array as="points">
              <mxPoint x="480" y="290" />
            </Array>
          </mxGeometry>
        </mxCell>
        <mxCell id="GAh8kWD-6GLYoqQhM_mk-43" value="" style="endArrow=none;html=1;rounded=0;exitX=0.5;exitY=0;exitDx=0;exitDy=0;" edge="1" parent="WIyWlLk6GJQsqaUBKTNV-1">
          <mxGeometry width="50" height="50" relative="1" as="geometry">
            <mxPoint x="64.5" y="200" as="sourcePoint" />
            <mxPoint x="64.5" y="90" as="targetPoint" />
          </mxGeometry>
        </mxCell>
      </root>
    </mxGraphModel>
  </diagram>
</mxfile>
